<?xml version="1.0" encoding="UTF-8" standalone="no"?>
<!-- Created with Inkscape (http://www.inkscape.org/) -->

<svg
   width="210mm"
   height="297mm"
   viewBox="0 0 210 297"
   version="1.1"
   id="svg1"
   inkscape:version="1.4 (86a8ad7, 2024-10-11)"
   sodipodi:docname="Ok media logo Master - 01.svg"
   xmlns:inkscape="http://www.inkscape.org/namespaces/inkscape"
   xmlns:sodipodi="http://sodipodi.sourceforge.net/DTD/sodipodi-0.dtd"
   xmlns="http://www.w3.org/2000/svg"
   xmlns:svg="http://www.w3.org/2000/svg">
  <sodipodi:namedview
     id="namedview1"
     pagecolor="#ffffff"
     bordercolor="#000000"
     borderopacity="0.25"
     inkscape:showpageshadow="2"
     inkscape:pageopacity="0.0"
     inkscape:pagecheckerboard="0"
     inkscape:deskcolor="#d1d1d1"
     inkscape:document-units="mm"
     inkscape:zoom="0.985"
     inkscape:cx="373.60406"
     inkscape:cy="1014.7208"
     inkscape:window-width="1147"
     inkscape:window-height="755"
     inkscape:window-x="52"
     inkscape:window-y="0"
     inkscape:window-maximized="0"
     inkscape:current-layer="layer1" />
  <defs
     id="defs1" />
  <g
     inkscape:label="Capa 1"
     inkscape:groupmode="layer"
     id="layer1">
    <rect
       style="fill:#000000;fill-opacity:1;stroke:#000000;stroke-width:1.45671;stroke-dasharray:none;stroke-opacity:1"
       id="rect45"
       width="74.203476"
       height="68.885223"
       x="7.1318116"
       y="223.07005" />
    <text
       xml:space="preserve"
       style="font-size:11.8826px;line-height:0.8;text-align:start;writing-mode:lr-tb;direction:ltr;text-anchor:start;fill:#000000;stroke-width:0.990213"
       x="29.716564"
       y="-18.88039"
       id="text1"
       transform="rotate(89.81939)"><tspan
         sodipodi:role="line"
         id="tspan1"
         style="font-style:normal;font-variant:normal;font-weight:normal;font-stretch:normal;font-size:31.75px;line-height:0.8;font-family:'Days One';-inkscape-font-specification:'Days One';text-align:center;text-anchor:middle;stroke-width:0.990213"
         x="29.716564"
         y="-18.88039">OK</tspan><tspan
         sodipodi:role="line"
         style="font-style:normal;font-variant:normal;font-weight:normal;font-stretch:normal;font-size:13.2029px;line-height:0.8;font-family:'Days One';-inkscape-font-specification:'Days One';text-align:center;text-anchor:middle;stroke-width:0.990213"
         x="29.716564"
         y="-6.1333818"
         id="tspan2">MEDIA</tspan></text>
    <text
       xml:space="preserve"
       style="font-size:11.8826px;line-height:0.8;text-align:start;writing-mode:lr-tb;direction:ltr;text-anchor:start;fill:#000000;stroke-width:0.990213"
       x="80.758194"
       y="29.011442"
       id="text10"><tspan
         sodipodi:role="line"
         id="tspan9"
         style="font-style:normal;font-variant:normal;font-weight:normal;font-stretch:normal;font-size:31.75px;line-height:0.8;font-family:'Days One';-inkscape-font-specification:'Days One';text-align:center;text-anchor:middle;stroke-width:0.990213"
         x="80.758194"
         y="29.011442">OK</tspan><tspan
         sodipodi:role="line"
         style="font-style:normal;font-variant:normal;font-weight:normal;font-stretch:normal;font-size:13.2029px;line-height:0.8;font-family:'Days One';-inkscape-font-specification:'Days One';text-align:center;text-anchor:middle;stroke-width:0.990213"
         x="80.758194"
         y="41.75845"
         id="tspan10">MEDIA</tspan></text>
    <text
       xml:space="preserve"
       style="font-size:11.8826px;line-height:0.8;text-align:start;writing-mode:lr-tb;direction:ltr;text-anchor:start;fill:#000000;stroke-width:0.990213"
       x="19.504202"
       y="99.142494"
       id="text12"><tspan
         sodipodi:role="line"
         id="tspan11"
         style="font-style:normal;font-variant:normal;font-weight:normal;font-stretch:normal;font-size:31.75px;line-height:0.8;font-family:'Days One';-inkscape-font-specification:'Days One';text-align:center;text-anchor:middle;stroke-width:0.990213"
         x="19.504202"
         y="99.142494">O</tspan><tspan
         sodipodi:role="line"
         style="font-style:normal;font-variant:normal;font-weight:normal;font-stretch:normal;font-size:13.2029px;line-height:0.8;font-family:'Days One';-inkscape-font-specification:'Days One';text-align:center;text-anchor:middle;stroke-width:0.990213"
         x="19.504202"
         y="111.04964"
         id="tspan12" /></text>
    <text
       xml:space="preserve"
       style="font-size:11.8826px;line-height:0.8;text-align:start;writing-mode:lr-tb;direction:ltr;text-anchor:start;fill:#000000;stroke-width:0.990213"
       x="43.695393"
       y="98.722878"
       id="text12-8"><tspan
         sodipodi:role="line"
         id="tspan11-8"
         style="font-style:normal;font-variant:normal;font-weight:normal;font-stretch:normal;font-size:31.75px;line-height:0.8;font-family:'Days One';-inkscape-font-specification:'Days One';text-align:center;text-anchor:middle;stroke-width:0.990213"
         x="43.695393"
         y="98.722878">K</tspan><tspan
         sodipodi:role="line"
         style="font-style:normal;font-variant:normal;font-weight:normal;font-stretch:normal;font-size:13.2029px;line-height:0.8;font-family:'Days One';-inkscape-font-specification:'Days One';text-align:center;text-anchor:middle;stroke-width:0.990213"
         x="43.695393"
         y="110.63003"
         id="tspan12-2" /></text>
    <text
       xml:space="preserve"
       style="font-size:11.8826px;line-height:0.8;text-align:start;writing-mode:lr-tb;direction:ltr;text-anchor:start;fill:#000000;stroke-width:0.990213"
       x="32.036484"
       y="97.053787"
       id="text14"><tspan
         sodipodi:role="line"
         id="tspan13"
         style="font-style:normal;font-variant:normal;font-weight:normal;font-stretch:normal;font-size:31.75px;line-height:0.8;font-family:'Days One';-inkscape-font-specification:'Days One';text-align:center;text-anchor:middle;stroke-width:0.990213"
         x="32.036484"
         y="97.053787" /><tspan
         sodipodi:role="line"
         style="font-style:normal;font-variant:normal;font-weight:normal;font-stretch:normal;font-size:13.2029px;line-height:0.8;font-family:'Days One';-inkscape-font-specification:'Days One';text-align:center;text-anchor:middle;stroke-width:0.990213"
         x="32.036484"
         y="109.8008"
         id="tspan14">MEDIA</tspan></text>
    <text
       xml:space="preserve"
       style="font-size:11.8826px;line-height:0.8;text-align:start;writing-mode:lr-tb;direction:ltr;text-anchor:start;fill:#000000;stroke-width:0.990213"
       x="81.637535"
       y="96.627945"
       id="text16"><tspan
         sodipodi:role="line"
         id="tspan15"
         style="font-style:normal;font-variant:normal;font-weight:normal;font-stretch:normal;font-size:31.75px;line-height:0.8;font-family:'Days One';-inkscape-font-specification:'Days One';text-align:center;text-anchor:middle;stroke-width:0.990213"
         x="81.637535"
         y="96.627945">O</tspan><tspan
         sodipodi:role="line"
         style="font-style:normal;font-variant:normal;font-weight:normal;font-stretch:normal;font-size:13.2029px;line-height:0.8;font-family:'Days One';-inkscape-font-specification:'Days One';text-align:center;text-anchor:middle;stroke-width:0.990213"
         x="81.637535"
         y="108.5351"
         id="tspan16" /></text>
    <text
       xml:space="preserve"
       style="font-size:9.24737px;line-height:0.8;text-align:start;writing-mode:lr-tb;direction:ltr;text-anchor:start;fill:#000000;stroke-width:0.770611"
       x="131.76579"
       y="96.116173"
       id="text18"
       transform="skewX(-17.223258)"><tspan
         sodipodi:role="line"
         id="tspan17"
         style="font-style:normal;font-variant:normal;font-weight:normal;font-stretch:normal;font-size:24.7087px;line-height:0.8;font-family:'Days One';-inkscape-font-specification:'Days One';text-align:center;text-anchor:middle;stroke-width:0.770611"
         x="131.76579"
         y="96.116173">K</tspan><tspan
         sodipodi:role="line"
         style="font-style:normal;font-variant:normal;font-weight:normal;font-stretch:normal;font-size:10.2749px;line-height:0.8;font-family:'Days One';-inkscape-font-specification:'Days One';text-align:center;text-anchor:middle;stroke-width:0.770611"
         x="131.76579"
         y="105.38264"
         id="tspan18" /></text>
    <text
       xml:space="preserve"
       style="font-size:11.8826px;line-height:0.8;text-align:start;writing-mode:lr-tb;direction:ltr;text-anchor:start;fill:#000000;stroke-width:0.990213"
       x="95.974861"
       y="96.359413"
       id="text20"><tspan
         sodipodi:role="line"
         id="tspan19"
         style="font-style:normal;font-variant:normal;font-weight:normal;font-stretch:normal;font-size:31.75px;line-height:0.8;font-family:'Days One';-inkscape-font-specification:'Days One';text-align:center;text-anchor:middle;stroke-width:0.990213"
         x="95.974861"
         y="96.359413" /><tspan
         sodipodi:role="line"
         style="font-style:normal;font-variant:normal;font-weight:normal;font-stretch:normal;font-size:13.2029px;line-height:0.8;font-family:'Days One';-inkscape-font-specification:'Days One';text-align:center;text-anchor:middle;stroke-width:0.990213"
         x="95.974861"
         y="109.10642"
         id="tspan20">MEDIA</tspan></text>
    <text
       xml:space="preserve"
       style="font-size:11.8826px;line-height:0.8;text-align:start;writing-mode:lr-tb;direction:ltr;text-anchor:start;fill:#000000;stroke-width:0.990213"
       x="32.796021"
       y="144.90433"
       id="text22"><tspan
         sodipodi:role="line"
         id="tspan21"
         style="font-style:normal;font-variant:normal;font-weight:normal;font-stretch:normal;font-size:31.75px;line-height:0.8;font-family:'Nothing You Could Do';-inkscape-font-specification:'Nothing You Could Do';text-align:center;text-anchor:middle;stroke-width:0.990213"
         x="32.796021"
         y="144.90433">O</tspan><tspan
         sodipodi:role="line"
         style="font-style:normal;font-variant:normal;font-weight:normal;font-stretch:normal;font-size:13.2029px;line-height:0.8;font-family:'Days One';-inkscape-font-specification:'Days One';text-align:center;text-anchor:middle;stroke-width:0.990213"
         x="32.796021"
         y="159.33578"
         id="tspan22" /></text>
    <text
       xml:space="preserve"
       style="font-size:11.8826px;line-height:0.8;text-align:start;writing-mode:lr-tb;direction:ltr;text-anchor:start;fill:#000000;stroke-width:0.990213"
       x="47.682938"
       y="145.8139"
       id="text24"><tspan
         sodipodi:role="line"
         id="tspan23"
         style="font-style:normal;font-variant:normal;font-weight:normal;font-stretch:normal;font-size:31.75px;line-height:0.8;font-family:'Nothing You Could Do';-inkscape-font-specification:'Nothing You Could Do';text-align:center;text-anchor:middle;stroke-width:0.990213"
         x="47.682938"
         y="145.8139">K</tspan><tspan
         sodipodi:role="line"
         style="font-style:normal;font-variant:normal;font-weight:normal;font-stretch:normal;font-size:13.2029px;line-height:0.8;font-family:'Days One';-inkscape-font-specification:'Days One';text-align:center;text-anchor:middle;stroke-width:0.990213"
         x="47.682938"
         y="160.24536"
         id="tspan24" /></text>
    <text
       xml:space="preserve"
       style="font-size:11.8826px;line-height:0.8;text-align:start;writing-mode:lr-tb;direction:ltr;text-anchor:start;fill:#000000;stroke-width:0.990213"
       x="39.631805"
       y="140.15724"
       id="text26"><tspan
         sodipodi:role="line"
         id="tspan25"
         style="font-style:normal;font-variant:normal;font-weight:normal;font-stretch:normal;font-size:31.75px;line-height:0.8;font-family:'Days One';-inkscape-font-specification:'Days One';text-align:center;text-anchor:middle;stroke-width:0.990213"
         x="39.631805"
         y="140.15724" /><tspan
         sodipodi:role="line"
         style="font-style:normal;font-variant:normal;font-weight:normal;font-stretch:normal;font-size:13.2029px;line-height:0.8;font-family:'Nothing You Could Do';-inkscape-font-specification:'Nothing You Could Do';text-align:center;text-anchor:middle;stroke-width:0.990213"
         x="39.631805"
         y="152.06439"
         id="tspan26">media</tspan></text>
    <text
       xml:space="preserve"
       style="font-size:10.49px;line-height:0.8;text-align:start;writing-mode:lr-tb;direction:ltr;text-anchor:start;fill:#000000;stroke-width:0.874163"
       x="133.96819"
       y="155.47871"
       id="text4"
       transform="matrix(0.9606519,0,-0.29779882,1.0409598,0,0)"><tspan
         sodipodi:role="line"
         id="tspan3"
         style="font-style:normal;font-variant:normal;font-weight:normal;font-stretch:normal;font-size:28.029px;line-height:0.8;font-family:'Days One';-inkscape-font-specification:'Days One';text-align:center;text-anchor:middle;stroke-width:0.874163"
         x="133.96819"
         y="155.47871">K</tspan><tspan
         sodipodi:role="line"
         style="font-style:normal;font-variant:normal;font-weight:normal;font-stretch:normal;font-size:11.6556px;line-height:0.8;font-family:'Days One';-inkscape-font-specification:'Days One';text-align:center;text-anchor:middle;stroke-width:0.874163"
         x="133.96819"
         y="165.99039"
         id="tspan4" /></text>
    <text
       xml:space="preserve"
       style="font-size:11.8826px;line-height:0.8;text-align:start;writing-mode:lr-tb;direction:ltr;text-anchor:start;fill:#000000;stroke-width:0.990213"
       x="135.27426"
       y="151.82224"
       id="text6"><tspan
         sodipodi:role="line"
         id="tspan5"
         style="font-style:normal;font-variant:normal;font-weight:normal;font-stretch:normal;font-size:31.75px;line-height:0.8;font-family:'Days One';-inkscape-font-specification:'Days One';text-align:center;text-anchor:middle;stroke-width:0.990213"
         x="135.27426"
         y="151.82224" /><tspan
         sodipodi:role="line"
         style="font-style:normal;font-variant:normal;font-weight:normal;font-stretch:normal;font-size:10.5833px;line-height:0.8;font-family:'Eras Bold ITC';-inkscape-font-specification:'Eras Bold ITC';text-align:center;text-anchor:middle;stroke-width:0.990213"
         x="135.27426"
         y="163.72939"
         id="tspan6">MEDIA</tspan></text>
    <text
       xml:space="preserve"
       style="font-size:11.8826px;line-height:0.8;text-align:start;writing-mode:lr-tb;direction:ltr;text-anchor:start;fill:#000000;stroke-width:0.990213"
       x="124.97226"
       y="147.49117"
       id="text8"><tspan
         sodipodi:role="line"
         id="tspan7"
         style="font-style:normal;font-variant:normal;font-weight:normal;font-stretch:normal;font-size:31.75px;line-height:0.8;font-family:'Carter One';-inkscape-font-specification:'Carter One';text-align:center;text-anchor:middle;stroke-width:0.990213"
         x="124.97226"
         y="147.49117">O</tspan><tspan
         sodipodi:role="line"
         style="font-style:normal;font-variant:normal;font-weight:normal;font-stretch:normal;font-size:13.2029px;line-height:0.8;font-family:'Days One';-inkscape-font-specification:'Days One';text-align:center;text-anchor:middle;stroke-width:0.990213"
         x="124.97226"
         y="161.44269"
         id="tspan8" /></text>
    <rect
       style="fill:none;stroke:#000000;stroke-width:0.911547;stroke-dasharray:none;stroke-opacity:1"
       id="rect8"
       width="44.73848"
       height="44.73848"
       x="85.488258"
       y="247.48938" />
    <text
       xml:space="preserve"
       style="font-size:11.8826px;line-height:0.8;text-align:start;writing-mode:lr-tb;direction:ltr;text-anchor:start;fill:#000000;stroke-width:0.990213"
       x="158.40477"
       y="138.82513"
       id="text28"
       transform="rotate(5.8719032)"><tspan
         sodipodi:role="line"
         id="tspan27"
         style="font-style:normal;font-variant:normal;font-weight:normal;font-stretch:normal;font-size:31.75px;line-height:0.8;font-family:'Carter One';-inkscape-font-specification:'Carter One';text-align:center;text-anchor:middle;stroke-width:0.990213"
         x="158.40477"
         y="138.82513">K</tspan><tspan
         sodipodi:role="line"
         style="font-style:normal;font-variant:normal;font-weight:normal;font-stretch:normal;font-size:13.2029px;line-height:0.8;font-family:'Days One';-inkscape-font-specification:'Days One';text-align:center;text-anchor:middle;stroke-width:0.990213"
         x="158.40477"
         y="152.77666"
         id="tspan28" /></text>
    <text
       xml:space="preserve"
       style="font-size:11.8826px;line-height:0.8;text-align:start;writing-mode:lr-tb;direction:ltr;text-anchor:start;fill:#000000;stroke-width:0.990213"
       x="36.542519"
       y="200.69748"
       id="text30"><tspan
         sodipodi:role="line"
         id="tspan29"
         style="font-style:normal;font-variant:normal;font-weight:normal;font-stretch:normal;font-size:31.75px;line-height:0.8;font-family:'Days One';-inkscape-font-specification:'Days One';text-align:center;text-anchor:middle;stroke-width:0.990213"
         x="36.542519"
         y="200.69748" /><tspan
         sodipodi:role="line"
         style="font-style:normal;font-variant:normal;font-weight:normal;font-stretch:normal;font-size:10.5833px;line-height:0.8;font-family:'Days One';-inkscape-font-specification:'Days One';text-align:center;text-anchor:middle;stroke-width:0.990213"
         x="36.542519"
         y="212.60463"
         id="tspan30">MEDIA</tspan></text>
    <text
       xml:space="preserve"
       style="font-size:11.8826px;line-height:0.8;text-align:start;writing-mode:lr-tb;direction:ltr;text-anchor:start;fill:#000000;stroke-width:0.990213"
       x="25.026535"
       y="202.26241"
       id="text32"><tspan
         sodipodi:role="line"
         id="tspan31"
         style="font-style:normal;font-variant:normal;font-weight:normal;font-stretch:normal;font-size:31.75px;line-height:0.8;font-family:'Days One';-inkscape-font-specification:'Days One';text-align:center;text-anchor:middle;stroke-width:0.990213"
         x="25.026535"
         y="202.26241">O</tspan><tspan
         sodipodi:role="line"
         style="font-style:normal;font-variant:normal;font-weight:normal;font-stretch:normal;font-size:13.2029px;line-height:0.8;font-family:'Days One';-inkscape-font-specification:'Days One';text-align:center;text-anchor:middle;stroke-width:0.990213"
         x="25.026535"
         y="214.16956"
         id="tspan32" /></text>
    <text
       xml:space="preserve"
       style="font-size:11.8826px;line-height:0.8;text-align:start;writing-mode:lr-tb;direction:ltr;text-anchor:start;fill:#000000;stroke-width:0.990213"
       x="47.089359"
       y="203.52364"
       id="text34"><tspan
         sodipodi:role="line"
         id="tspan33"
         style="font-style:normal;font-variant:normal;font-weight:normal;font-stretch:normal;font-size:31.75px;line-height:0.8;font-family:'Days One';-inkscape-font-specification:'Days One';text-align:center;text-anchor:middle;stroke-width:0.990213"
         x="47.089359"
         y="203.52364">K</tspan><tspan
         sodipodi:role="line"
         style="font-style:normal;font-variant:normal;font-weight:normal;font-stretch:normal;font-size:13.2029px;line-height:0.8;font-family:'Days One';-inkscape-font-specification:'Days One';text-align:center;text-anchor:middle;stroke-width:0.990213"
         x="47.089359"
         y="215.43079"
         id="tspan34" /></text>
    <text
       xml:space="preserve"
       style="font-size:11.8826px;line-height:0.8;text-align:start;writing-mode:lr-tb;direction:ltr;text-anchor:start;fill:#000000;stroke-width:0.990213"
       x="76.203651"
       y="171.00595"
       id="text36"><tspan
         sodipodi:role="line"
         id="tspan35"
         style="font-style:normal;font-variant:normal;font-weight:normal;font-stretch:normal;font-size:31.75px;line-height:0.8;font-family:'Days One';-inkscape-font-specification:'Days One';text-align:center;text-anchor:middle;stroke-width:0.990213"
         x="76.203651"
         y="171.00595" /><tspan
         sodipodi:role="line"
         style="font-style:normal;font-variant:normal;font-weight:normal;font-stretch:normal;font-size:10.5833px;line-height:0.8;font-family:'Days One';-inkscape-font-specification:'Days One';text-align:center;text-anchor:middle;stroke-width:0.990213"
         x="76.203651"
         y="182.9131"
         id="tspan36">MEDIA</tspan></text>
    <path
       style="font-size:31.75px;line-height:0.8;font-family:'Carter One';-inkscape-font-specification:'Carter One';text-align:center;text-anchor:middle;stroke-width:0.990213"
       d="m 128.308,195.35997 q -0.031,0.23254 -0.062,0.74414 -0.031,0.49609 -0.093,1.14722 -0.0465,0.65112 -0.093,1.39526 -0.0465,0.72864 -0.10852,1.42627 -0.0465,0.68213 -0.10852,1.25574 -0.0465,0.57361 -0.0775,0.91467 l 0.79065,-0.80615 2.20141,-2.72852 q 0.40308,-0.51159 0.80615,-0.99218 0.40308,-0.4961 0.71314,-0.88367 0.32556,-0.40308 0.5271,-0.66663 0.20154,-0.26355 0.23254,-0.29455 l 6.8833,-0.57361 q 0.031,-0.0155 0.13953,-0.0155 h 0.12402 q 0.35657,0 0.35657,0.18603 0,0.10852 -0.10852,0.26355 -0.093,0.13953 -0.29456,0.37207 -0.24804,0.29456 -0.72863,0.85266 -0.46509,0.5426 -1.0232,1.20923 -0.5581,0.65112 -1.16272,1.36426 -0.58911,0.69763 -1.1007,1.30224 -0.5116,0.58912 -0.88367,1.0232 -0.35657,0.43408 -0.44959,0.5581 l -0.97668,0.93018 q -0.99219,0.94568 -2.54248,2.35644 0.48059,0.4961 1.02319,1.08521 0.55811,0.57361 1.0542,1.11621 0.5116,0.5271 0.91467,0.96118 0.41858,0.43408 0.62012,0.65112 l 4.79041,5.55005 q 0.0775,0.093 0.20153,0.15503 0.12403,0.062 0.24805,0.10852 0.12402,0.0465 0.20154,0.10852 0.093,0.0465 0.093,0.12403 0,0.093 -0.20154,0.29455 -0.12402,0.12403 -0.46509,0.37207 -0.34106,0.23255 -0.80615,0.5116 -0.44959,0.27905 -0.97669,0.57361 -0.5271,0.29455 -1.02319,0.5271 -0.48059,0.24805 -0.89917,0.40307 -0.40308,0.15503 -0.62012,0.15503 -0.32556,0 -0.68213,-0.29455 -0.35656,-0.27905 -0.85266,-0.85266 -0.49609,-0.58911 -1.17822,-1.48828 -0.68213,-0.89917 -1.64331,-2.1084 -0.55811,-0.69763 -1.0852,-1.36426 -0.5271,-0.68213 -0.99219,-1.27124 -0.46509,-0.60462 -0.85266,-1.0697 -0.37207,-0.48059 -0.62012,-0.77515 -0.12402,0.12402 -0.26355,0.24805 -0.13953,0.10852 -0.26355,0.23254 l -0.5426,6.65076 q -0.0155,0.13952 -0.062,0.27905 -0.031,0.13953 -0.20154,0.20154 l -4.38733,1.5813 q -0.17053,0.062 -0.44959,0.15503 -0.27905,0.093 -0.5426,0.093 -0.23254,0 -0.38757,-0.12402 -0.15503,-0.12402 -0.15503,-0.44958 0.0775,-0.91468 0.18603,-2.37195 0.12403,-1.45728 0.24805,-3.31763 0.13953,-1.87585 0.27905,-4.07727 0.15503,-2.21692 0.32556,-4.65088 l 0.43409,-6.52673 q 0.0155,-0.27905 0.031,-0.46509 0.0155,-0.18603 0.0465,-0.31006 0.031,-0.12402 0.10852,-0.18603 0.0775,-0.062 0.23255,-0.093 l 5.36401,-1.28674 q 0.20154,-0.062 0.41858,-0.062 0.21704,0 0.29455,0.13953 0.0775,0.12402 0.0775,0.5271 z"
       id="text38"
       transform="rotate(-6.9391992)"
       aria-label="K&#10;" />
    <path
       style="font-size:31.75px;line-height:0.8;font-family:'Carter One';-inkscape-font-specification:'Carter One';text-align:center;text-anchor:middle;stroke-width:0.990213"
       d="m 129.12042,194.27937 q 0,1.11621 0.23255,2.24793 0.24804,1.11621 0.80615,2.01538 0.5581,0.89917 1.47278,1.45727 0.91467,0.55811 2.26342,0.55811 1.0387,-0.062 1.81385,-0.41858 0.79065,-0.37207 1.34875,-0.94568 0.57361,-0.58911 0.94568,-1.33325 0.37207,-0.75964 0.58911,-1.5813 0.21704,-0.83716 0.29456,-1.70532 0.093,-0.86817 0.093,-1.67432 0,-1.10071 -0.29456,-2.1239 -0.29456,-1.0387 -0.88367,-1.82934 -0.58911,-0.79065 -1.47278,-1.27124 -0.86816,-0.4806 -2.03088,-0.4806 -0.91467,0 -1.65881,0.34107 -0.72864,0.34106 -1.30225,0.91467 -0.57361,0.55811 -0.99219,1.30225 -0.40307,0.72864 -0.68213,1.51928 -0.26354,0.77515 -0.40307,1.5658 -0.12402,0.77515 -0.13953,1.44177 z m 3.02307,11.37915 q -2.32544,0 -4.15478,-0.86816 -1.82935,-0.86816 -3.10059,-2.34094 -1.25573,-1.48828 -1.93786,-3.42615 -0.66663,-1.95337 -0.66663,-4.12378 0,-2.43396 0.68213,-4.48035 0.69763,-2.06189 1.93787,-3.64318 1.24023,-1.59681 2.94555,-2.68201 1.72083,-1.10071 3.76721,-1.62781 0.18604,0 0.27906,-0.29455 0.10852,-0.29456 0.18603,-0.65113 0.0775,-0.35657 0.18604,-0.65112 0.10852,-0.29456 0.31006,-0.29456 3.00756,0.31006 5.41052,1.06971 2.40295,0.74414 4.07727,2.1394 1.67432,1.39526 2.55798,3.53467 0.89917,2.1239 0.89917,5.19348 0,1.96887 -0.48059,3.7052 -0.48059,1.73633 -1.34875,3.20911 -0.86817,1.45727 -2.0929,2.61999 -1.20923,1.14722 -2.69751,1.95337 -1.48828,0.80615 -3.20911,1.22473 -1.70532,0.43408 -3.55017,0.43408 z"
       id="text40"
       aria-label="O&#10;" />
    <path
       style="fill:#000000;fill-opacity:1;stroke:#000000;stroke-width:0.814999;stroke-dasharray:none;stroke-opacity:1"
       d="m 157.694,188.17916 8.15974,6.73517 -0.53083,-16.11808 z"
       id="path40"
       sodipodi:nodetypes="cccc" />
    <text
       xml:space="preserve"
       style="font-size:11.8826px;line-height:0.8;text-align:start;writing-mode:lr-tb;direction:ltr;text-anchor:start;fill:#000000;stroke-width:0.990213"
       x="145.11516"
       y="215.45967"
       id="text42"><tspan
         sodipodi:role="line"
         style="font-style:normal;font-variant:normal;font-weight:normal;font-stretch:normal;font-size:12.3472px;line-height:0.8;font-family:'Franklin Gothic Heavy';-inkscape-font-specification:'Franklin Gothic Heavy, ';text-align:center;text-anchor:middle;stroke-width:0.990213"
         x="145.11516"
         y="215.45967"
         id="tspan42">MEDIA</tspan></text>
    <path
       style="font-size:31.75px;line-height:0.8;font-family:'Carter One';-inkscape-font-specification:'Carter One';text-align:center;text-anchor:middle;stroke-width:0.990213"
       d="m 114.70806,251.22127 c -0.002,0.15639 0.007,0.40511 0.0284,0.74618 0.0586,1.74564 0.1998,3.48823 0.2311,5.23491 0.0154,0.38335 0.0266,0.68913 0.0336,0.91734 l 0.68746,-0.89577 c 1.79839,-2.93499 2.79446,-4.41045 3.57986,-5.74559 0.11215,-0.19065 0.17723,-0.29748 0.19525,-0.32049 0.14093,9.8e-4 7.22409,-0.68207 7.82712,-0.59436 0.0792,0.0115 -8.26444,10.36583 -8.39404,10.56477 3.16101,2.49704 6.11885,5.22566 9.10299,7.92746 -1.59327,1.46708 -2.0767,1.77535 -4.52673,3.612 -1.21675,-0.73419 -5.12796,-5.07538 -7.88095,-7.63891 -0.0721,0.0921 -0.14931,0.18475 -0.23166,0.27807 -0.0836,0.083 -0.16143,0.17061 -0.23352,0.26268 l 0.33204,10.46175 c 6.7e-4,0.0936 -0.009,0.18841 -0.0278,0.28449 -0.009,0.0948 -0.0678,0.16965 -0.17571,0.22442 l -4.16415,2.09977 c -0.10786,0.0548 -0.25038,0.12421 -0.42757,0.20821 -0.17718,0.084 -0.35297,0.13666 -0.52739,0.15788 -0.15388,0.0187 -0.28712,-0.007 -0.39971,-0.0763 -0.11258,-0.0696 -0.18199,-0.2121 -0.20821,-0.42756 -0.28887,-4.52263 -0.27938,-9.05052 -0.53924,-13.57561 -0.18487,-3.72991 -0.39217,-7.45862 -0.59635,-11.18751 -0.0122,-0.18592 -0.0207,-0.34106 -0.0254,-0.46543 -0.005,-0.12436 -0.002,-0.22883 0.009,-0.31341 0.0105,-0.0846 0.039,-0.15049 0.0853,-0.19777 0.0463,-0.0473 0.11947,-0.0874 0.21961,-0.12042 l 5.16926,-1.92537 c 0.12838,-0.0573 0.26439,-0.0946 0.40802,-0.11212 0.14363,-0.0175 0.24672,0.0168 0.30925,0.10292 0.0613,0.0758 0.10814,0.24713 0.14061,0.51388 z"
       id="path43"
       aria-label="K&#10;"
       sodipodi:nodetypes="cccccscsccccccccccssscccccsccsccc" />
    <path
       style="font-size:31.75px;line-height:0.8;font-family:'Carter One';-inkscape-font-specification:'Carter One';text-align:center;text-anchor:middle;stroke-width:0.990213"
       d="m 94.133636,266.80475 c 0,0.74414 0.0775,1.49345 0.23255,2.24793 0.16536,0.74414 0.43408,1.41593 0.80615,2.01538 0.37207,0.59945 0.86299,1.0852 1.47278,1.45727 0.60978,0.37207 1.36425,0.55811 2.26342,0.55811 0.69247,-0.0413 1.297084,-0.18086 1.813854,-0.41858 3.69373,-1.73825 3.50598,-7.52458 2.97654,-9.36377 -0.59732,-2.10636 -2.17876,-3.58118 -4.387334,-3.58118 -3.08593,0 -4.29625,3.11644 -4.63538,4.07727 -0.17569,0.51677 -0.31005,1.0387 -0.40307,1.5658 -0.0827,0.51677 -0.12919,0.99736 -0.13953,1.44177 z m 3.02307,11.37915 c -6.24923,0 -9.85986,-5.04116 -9.85986,-10.75903 0,-1.62264 0.22738,-3.11609 0.68213,-4.48035 0.46509,-1.37459 1.11104,-2.58899 1.93787,-3.64318 2.5127,-3.23513 7.41907,-5.96434 13.084474,-5.13147 1.60197,0.49609 2.96106,1.20923 4.07727,2.1394 1.11621,0.93017 1.96887,2.1084 2.55798,3.53467 0.59945,1.41593 0.89917,3.14709 0.89917,5.19348 0,1.31258 -0.1602,2.54765 -0.48059,3.7052 -0.32039,1.15755 -0.76998,2.22726 -1.34875,3.20911 -0.57878,0.97151 -1.27641,1.84484 -2.0929,2.61999 -0.80615,0.76481 -1.70532,1.41594 -2.69751,1.95337 -0.99219,0.53743 -2.06189,0.94568 -3.20911,1.22473 -1.136884,0.28939 -2.320274,0.43408 -3.550174,0.43408 z"
       id="path44"
       aria-label="O&#10;"
       sodipodi:nodetypes="scsscccsccsssscccscssccscs" />
    <path
       style="fill:#000000;fill-opacity:1;stroke:#000000;stroke-width:0.814999;stroke-dasharray:none;stroke-opacity:1"
       d="m 120.96124,260.97315 6.99707,4.89421 -0.48276,-12.16871 z"
       id="path45"
       sodipodi:nodetypes="cccc" />
    <text
       xml:space="preserve"
       style="font-size:11.8826px;line-height:0.8;text-align:start;writing-mode:lr-tb;direction:ltr;text-anchor:start;fill:#000000;stroke-width:0.990213"
       x="200.93295"
       y="288.25366"
       id="text45"
       transform="skewX(-17.906847)"><tspan
         sodipodi:role="line"
         style="font-style:normal;font-variant:normal;font-weight:normal;font-stretch:normal;font-size:12.3472px;line-height:0.8;font-family:'Franklin Gothic Heavy';-inkscape-font-specification:'Franklin Gothic Heavy, ';text-align:center;text-anchor:middle;stroke-width:0.990213"
         x="200.93295"
         y="288.25366"
         id="tspan45">MEDIA</tspan></text>
    <path
       style="font-size:31.75px;line-height:0.8;font-family:'Carter One';-inkscape-font-specification:'Carter One';text-align:center;text-anchor:middle;fill:#ffffff;stroke-width:0.990213"
       d="m 65.01474,249.87821 c -0.002,0.15639 0.007,0.40511 0.0284,0.74618 0.0586,1.74564 0.1998,3.48823 0.2311,5.23491 0.0154,0.38335 0.0266,0.68913 0.0336,0.91734 l 0.68746,-0.89577 c 1.79839,-2.93499 2.79446,-4.41045 3.57986,-5.74559 0.11215,-0.19065 0.17723,-0.29748 0.19525,-0.32049 0.14093,9.8e-4 7.22409,-0.68207 7.82712,-0.59436 0.0792,0.0115 -8.26444,10.36583 -8.39404,10.56477 3.16101,2.49704 6.11885,5.22566 9.10299,7.92746 -1.59327,1.46708 -2.0767,1.77535 -4.52673,3.612 -1.21675,-0.73419 -5.12796,-5.07538 -7.88095,-7.63891 -0.0721,0.0921 -0.14931,0.18475 -0.23166,0.27807 -0.0836,0.083 -0.16143,0.17061 -0.23352,0.26268 l 0.33204,10.46175 c 6.7e-4,0.0936 -0.009,0.18841 -0.0278,0.28449 -0.009,0.0948 -0.0678,0.16965 -0.17571,0.22442 l -4.16415,2.09977 c -0.10786,0.0548 -0.25038,0.12421 -0.42757,0.20821 -0.17718,0.084 -0.35297,0.13666 -0.52739,0.15788 -0.15388,0.0187 -0.28712,-0.007 -0.39971,-0.0763 -0.11258,-0.0696 -0.18199,-0.2121 -0.20821,-0.42756 -0.28887,-4.52263 -0.27938,-9.05052 -0.53924,-13.57561 -0.18487,-3.72991 -0.39217,-7.45862 -0.59635,-11.18751 -0.0122,-0.18592 -0.0207,-0.34106 -0.0254,-0.46543 -0.005,-0.12436 -0.002,-0.22883 0.009,-0.31341 0.0105,-0.0846 0.039,-0.15049 0.0853,-0.19777 0.0463,-0.0473 0.11947,-0.0874 0.21961,-0.12042 l 5.16926,-1.92537 c 0.12838,-0.0573 0.26439,-0.0946 0.40802,-0.11212 0.14363,-0.0175 0.24672,0.0168 0.30925,0.10292 0.0613,0.0758 0.10814,0.24713 0.14061,0.51388 z"
       id="path46"
       aria-label="K&#10;"
       sodipodi:nodetypes="cccccscsccccccccccssscccccsccsccc" />
    <path
       style="font-size:31.75px;line-height:0.8;font-family:'Carter One';-inkscape-font-specification:'Carter One';text-align:center;text-anchor:middle;stroke-width:0.990213;fill:#ffffff"
       d="m 44.44032,265.46169 c 0,0.74414 0.0775,1.49345 0.23255,2.24793 0.16536,0.74414 0.43408,1.41593 0.80615,2.01538 0.37207,0.59945 0.86299,1.0852 1.47278,1.45727 0.60978,0.37207 1.36425,0.55811 2.26342,0.55811 0.69247,-0.0413 1.29708,-0.18086 1.81385,-0.41858 3.69373,-1.73825 3.50598,-7.52458 2.97654,-9.36377 -0.59732,-2.10636 -2.17876,-3.58118 -4.38733,-3.58118 -3.08593,0 -4.29625,3.11644 -4.63538,4.07727 -0.17569,0.51677 -0.31005,1.0387 -0.40307,1.5658 -0.0827,0.51677 -0.12919,0.99736 -0.13953,1.44177 z m 3.02307,11.37915 c -6.24923,0 -9.85986,-5.04116 -9.85986,-10.75903 0,-1.62264 0.22738,-3.11609 0.68213,-4.48035 0.46509,-1.37459 1.11104,-2.58899 1.93787,-3.64318 2.5127,-3.23513 7.41907,-5.96434 13.08447,-5.13147 1.60197,0.49609 2.96106,1.20923 4.07727,2.1394 1.11621,0.93017 1.96887,2.1084 2.55798,3.53467 0.59945,1.41593 0.89917,3.14709 0.89917,5.19348 0,1.31258 -0.1602,2.54765 -0.48059,3.7052 -0.32039,1.15755 -0.76998,2.22726 -1.34875,3.20911 -0.57878,0.97151 -1.27641,1.84484 -2.0929,2.61999 -0.80615,0.76481 -1.70532,1.41594 -2.69751,1.95337 -0.99219,0.53743 -2.06189,0.94568 -3.20911,1.22473 -1.13688,0.28939 -2.32027,0.43408 -3.55017,0.43408 z"
       id="path47"
       aria-label="O&#10;"
       sodipodi:nodetypes="scsscccsccsssscccscssccscs"
       inkscape:export-filename="logo-okmedia-pequeño.png"
       inkscape:export-xdpi="96"
       inkscape:export-ydpi="96" />
    <path
       style="fill:#ffffff;fill-opacity:1;stroke:none;stroke-width:0.814999;stroke-dasharray:none;stroke-opacity:1"
       d="m 71.26792,259.63009 6.99707,4.89421 -0.48276,-12.16871 z"
       id="path48"
       sodipodi:nodetypes="cccc" />
    <text
       xml:space="preserve"
       style="font-size:11.8826px;line-height:0.8;text-align:start;writing-mode:lr-tb;direction:ltr;text-anchor:start;fill:#ffffff;stroke-width:0.990213"
       x="150.80566"
       y="286.91061"
       id="text48"
       transform="skewX(-17.906847)"><tspan
         sodipodi:role="line"
         style="font-style:normal;font-variant:normal;font-weight:normal;font-stretch:normal;font-size:12.3472px;line-height:0.8;font-family:'Franklin Gothic Heavy';-inkscape-font-specification:'Franklin Gothic Heavy, ';text-align:center;text-anchor:middle;stroke-width:0.990213;fill:#ffffff"
         x="150.80566"
         y="286.91061"
         id="tspan48">MEDIA</tspan></text>
    <path
       style="font-size:31.75px;line-height:0.8;font-family:'Carter One';-inkscape-font-specification:'Carter One';text-align:center;text-anchor:middle;fill:#000000;stroke-width:0.990213;fill-opacity:1"
       d="m 161.44664,249.6096 c -0.002,0.15639 0.007,0.40511 0.0284,0.74618 0.0586,1.74564 0.1998,3.48823 0.2311,5.23491 0.0154,0.38335 0.0266,0.68913 0.0336,0.91734 l 0.68746,-0.89577 c 1.79839,-2.93499 2.79446,-4.41045 3.57986,-5.74559 0.11215,-0.19065 0.17723,-0.29748 0.19525,-0.32049 0.14093,9.8e-4 7.22409,-0.68207 7.82712,-0.59436 0.0792,0.0115 -8.26444,10.36583 -8.39404,10.56477 3.16101,2.49704 6.11885,5.22566 9.10299,7.92746 -1.59327,1.46708 -2.0767,1.77535 -4.52673,3.612 -1.21675,-0.73419 -5.12796,-5.07538 -7.88095,-7.63891 -0.0721,0.0921 -0.14931,0.18475 -0.23166,0.27807 -0.0836,0.083 -0.16143,0.17061 -0.23352,0.26268 l 0.33204,10.46175 c 6.7e-4,0.0936 -0.009,0.18841 -0.0278,0.28449 -0.009,0.0948 -0.0678,0.16965 -0.17571,0.22442 l -4.16415,2.09977 c -0.10786,0.0548 -0.25038,0.12421 -0.42757,0.20821 -0.17718,0.084 -0.35297,0.13666 -0.52739,0.15788 -0.15388,0.0187 -0.28712,-0.007 -0.39971,-0.0763 -0.11258,-0.0696 -0.18199,-0.2121 -0.20821,-0.42756 -0.28887,-4.52263 -0.27938,-9.05052 -0.53924,-13.57561 -0.18487,-3.72991 -0.39217,-7.45862 -0.59635,-11.18751 -0.0122,-0.18592 -0.0207,-0.34106 -0.0254,-0.46543 -0.005,-0.12436 -0.002,-0.22883 0.009,-0.31341 0.0105,-0.0846 0.039,-0.15049 0.0853,-0.19777 0.0463,-0.0473 0.11947,-0.0874 0.21961,-0.12042 l 5.16926,-1.92537 c 0.12838,-0.0573 0.26439,-0.0946 0.40802,-0.11212 0.14363,-0.0175 0.24672,0.0168 0.30925,0.10292 0.0613,0.0758 0.10814,0.24713 0.14061,0.51388 z"
       id="path49"
       aria-label="K&#10;"
       sodipodi:nodetypes="cccccscsccccccccccssscccccsccsccc" />
    <path
       style="font-size:31.75px;line-height:0.8;font-family:'Carter One';-inkscape-font-specification:'Carter One';text-align:center;text-anchor:middle;fill:#000000;stroke-width:0.990213;fill-opacity:1"
       d="m 140.87222,265.19308 c 0,0.74414 0.0775,1.49345 0.23255,2.24793 0.16536,0.74414 0.43408,1.41593 0.80615,2.01538 0.37207,0.59945 0.86299,1.0852 1.47278,1.45727 0.60978,0.37207 1.36425,0.55811 2.26342,0.55811 0.69247,-0.0413 1.29708,-0.18086 1.81385,-0.41858 3.69373,-1.73825 3.50598,-7.52458 2.97654,-9.36377 -0.59732,-2.10636 -2.17876,-3.58118 -4.38733,-3.58118 -3.08593,0 -4.29625,3.11644 -4.63538,4.07727 -0.17569,0.51677 -0.31005,1.0387 -0.40307,1.5658 -0.0827,0.51677 -0.12919,0.99736 -0.13953,1.44177 z m 3.02307,11.37915 c -6.24923,0 -9.85986,-5.04116 -9.85986,-10.75903 0,-1.62264 0.22738,-3.11609 0.68213,-4.48035 0.46509,-1.37459 1.11104,-2.58899 1.93787,-3.64318 2.5127,-3.23513 7.41907,-5.96434 13.08447,-5.13147 1.60197,0.49609 2.96106,1.20923 4.07727,2.1394 1.11621,0.93017 1.96887,2.1084 2.55798,3.53467 0.59945,1.41593 0.89917,3.14709 0.89917,5.19348 0,1.31258 -0.1602,2.54765 -0.48059,3.7052 -0.32039,1.15755 -0.76998,2.22726 -1.34875,3.20911 -0.57878,0.97151 -1.27641,1.84484 -2.0929,2.61999 -0.80615,0.76481 -1.70532,1.41594 -2.69751,1.95337 -0.99219,0.53743 -2.06189,0.94568 -3.20911,1.22473 -1.13688,0.28939 -2.32027,0.43408 -3.55017,0.43408 z"
       id="path50"
       aria-label="O&#10;"
       sodipodi:nodetypes="scsscccsccsssscccscssccscs" />
    <path
       style="fill:#000000;fill-opacity:1;stroke:#000000;stroke-width:0.814999;stroke-dasharray:none;stroke-opacity:1"
       d="m 167.69982,259.36148 6.99707,4.89421 -0.48276,-12.16871 z"
       id="path51"
       sodipodi:nodetypes="cccc" />
    <text
       xml:space="preserve"
       style="font-size:11.8826px;line-height:0.8;text-align:start;writing-mode:lr-tb;direction:ltr;text-anchor:start;fill:#000000;stroke-width:0.990213;fill-opacity:1"
       x="247.15076"
       y="286.642"
       id="text51"
       transform="skewX(-17.906847)"><tspan
         sodipodi:role="line"
         style="font-style:normal;font-variant:normal;font-weight:normal;font-stretch:normal;font-size:12.3472px;line-height:0.8;font-family:'Franklin Gothic Heavy';-inkscape-font-specification:'Franklin Gothic Heavy, ';text-align:center;text-anchor:middle;fill:#000000;stroke-width:0.990213;fill-opacity:1"
         x="247.15076"
         y="286.642"
         id="tspan51">MEDIA</tspan></text>
  </g>
</svg>
