<?xml version="1.0" encoding="UTF-8" standalone="no"?>
<svg
   version="1.0"
   width="107.000000pt"
   height="107.000000pt"
   viewBox="0 0 107.000000 107.000000"
   preserveAspectRatio="xMidYMid meet"
   id="svg2580"
   sodipodi:docname="safari-pinned-tab.svg"
   inkscape:version="1.2.2 (732a01da63, 2022-12-09)"
   xmlns:inkscape="http://www.inkscape.org/namespaces/inkscape"
   xmlns:sodipodi="http://sodipodi.sourceforge.net/DTD/sodipodi-0.dtd"
   xmlns="http://www.w3.org/2000/svg"
   xmlns:svg="http://www.w3.org/2000/svg">
  <defs
     id="defs2584" />
  <sodipodi:namedview
     id="namedview2582"
     pagecolor="#505050"
     bordercolor="#eeeeee"
     borderopacity="1"
     inkscape:showpageshadow="0"
     inkscape:pageopacity="0"
     inkscape:pagecheckerboard="0"
     inkscape:deskcolor="#505050"
     inkscape:document-units="pt"
     showgrid="false"
     inkscape:zoom="2.3394"
     inkscape:cx="42.532273"
     inkscape:cy="88.911687"
     inkscape:window-width="1440"
     inkscape:window-height="837"
     inkscape:window-x="-8"
     inkscape:window-y="-8"
     inkscape:window-maximized="1"
     inkscape:current-layer="svg2580" />
  <metadata
     id="metadata2572">
Created by potrace 1.11, written by Peter Selinger 2001-2013
</metadata>
  <path
     style="font-size:31.75px;line-height:0.8;font-family:'Carter One';-inkscape-font-specification:'Carter One';text-align:center;text-anchor:middle;fill:#000000;stroke-width:3.4521"
     d="m 63.647586,3.4624261 c -0.0066,0.5805122 0.02296,1.5042867 0.09297,2.7707999 0.19178,6.48219 0.653973,12.952979 0.756371,19.439091 0.0498,1.423409 0.08709,2.558947 0.109996,3.406447 l 2.250024,-3.326452 c 5.886067,-10.89857 9.081016,-16.0948662 11.651599,-21.0525548 0.367072,-0.7079366 0.580083,-1.1047258 0.639108,-1.1901348 0.461254,0.00402 27.521756,-2.3311133 27.853176,-2.3395578 0.26313,-0.00644 -29.284523,38.6245084 -29.708694,39.3632734 10.345885,9.272435 19.909492,19.378999 29.676474,29.411781 -5.21473,5.447801 -6.67968,6.618106 -14.698535,13.438283 -3.982379,-2.726311 -16.783642,-18.846674 -25.79409,-28.366018 -0.23592,0.343029 -0.488632,0.686057 -0.758201,1.032621 -0.273553,0.308358 -0.528419,0.633318 -0.764263,0.975358 l 1.086748,38.848281 c 0.0028,0.347557 -0.02988,0.699638 -0.09098,1.056384 -0.02988,0.35209 -0.221975,0.630295 -0.575092,0.833306 L 51.80967,105.0511 c -0.353051,0.2028 -0.819494,0.46139 -1.399434,0.7732 -0.579921,0.31214 -1.15525,0.50815 -1.726121,0.5858 -0.503583,0.0679 -0.939736,-0.015 -1.30823,-0.28348 -0.368533,-0.25857 -0.595641,-0.7876 -0.681484,-1.58767 C 45.748945,87.744831 45.71541,71.440576 44.864905,54.637348 44.259845,40.786732 43.58134,26.940791 42.913071,13.094031 c -0.03984,-0.690597 -0.06745,-1.266442 -0.0831,-1.728272 -0.01689,-0.46216 -0.0066,-0.849693 0.02988,-1.163829 0.03453,-0.3136451 0.192842,-0.8416106 0.344456,-1.0171939 0.151452,-0.1749095 0.391063,-0.324204 0.718804,-0.4470873 l 16.918816,-7.149551 c 0.42011,-0.2125996 0.865342,-0.3505656 1.335437,-0.4169165 0.470086,-0.067979 0.807503,0.060343 1.012175,0.3814832 0.200583,0.2812093 0.353961,0.9176841 0.460191,1.9081625 z"
     id="path46"
     aria-label="K "
     sodipodi:nodetypes="cccccscsccccccccccssscccccsccsccc"
     inkscape:export-filename="..\..\..\Desktop\Ok Media\Logo-icon.svg"
     inkscape:export-xdpi="96"
     inkscape:export-ydpi="96" />
  <path
     style="font-size:31.75px;line-height:0.8;font-family:'Carter One';-inkscape-font-specification:'Carter One';text-align:center;text-anchor:middle;fill:#000000;stroke-width:2.94554"
     d="m 18.206612,65.908265 c 0,2.526211 0.202044,5.070166 0.606132,7.631595 0.430992,2.526311 1.131392,4.806916 2.101162,6.842129 0.96977,2.034954 2.249313,3.68408 3.838676,4.947183 1.589345,1.263215 3.555807,1.894763 5.899416,1.894763 1.804869,-0.14023 3.380743,-0.614446 4.727659,-1.42106 9.627403,-5.901213 9.13805,-25.545452 7.758111,-31.789396 C 41.580896,46.862475 37.459,41.85563 31.702555,41.85563 c -8.043238,0 -11.197841,10.580182 -12.081749,13.842091 -0.457895,1.754449 -0.808119,3.526222 -1.050566,5.315791 -0.215534,1.754384 -0.336791,3.386006 -0.363695,4.894753 z m 7.879387,38.631525 c -16.288104,0 -25.6989121,-17.114471 -25.6989121,-36.526295 0,-5.508729 0.5926453,-10.578905 1.7779111,-15.210511 1.2122171,-4.666685 2.8958464,-8.789496 5.050901,-12.368409 6.549148,-10.983022 19.337207,-20.248515 34.103596,-17.421021 4.17541,1.684185 7.717765,4.105239 10.627084,7.26309 2.90931,3.157939 5.131691,7.158019 6.667161,12.00012 1.562403,4.806916 2.343609,10.684087 2.343609,17.631524 0,4.456014 -0.417587,8.649081 -1.25262,12.578953 -0.83508,3.929728 -2.006885,7.561284 -3.515404,10.894666 -1.508538,3.298149 -3.326859,6.263097 -5.454982,8.894785 -2.101161,2.596428 -4.44478,4.807003 -7.030836,6.631395 -2.586056,1.824713 -5.374147,3.210653 -8.364272,4.158013 -2.963193,0.98243 -6.047605,1.47369 -9.253236,1.47369 z"
     id="path47"
     aria-label="O "
     sodipodi:nodetypes="scsscccsccsssscccscssccscs"
     inkscape:export-filename="logo-okmedia-pequeño.png"
     inkscape:export-xdpi="96"
     inkscape:export-ydpi="96" />
</svg>
