<?xml version="1.0" encoding="UTF-8" standalone="no"?>
<!-- Created with Inkscape (http://www.inkscape.org/) -->

<svg
   width="44.561157mm"
   height="37.429321mm"
   viewBox="0 0 44.561157 37.429321"
   version="1.1"
   id="svg1"
   xmlns="http://www.w3.org/2000/svg"
   xmlns:svg="http://www.w3.org/2000/svg">
  <defs
     id="defs1" />
  <g
     id="layer1"
     transform="translate(-154.73235,-303.8753)">
    <path
       style="font-size:31.75px;line-height:0.8;font-family:'Carter One';-inkscape-font-specification:'Carter One';text-align:center;text-anchor:middle;fill:#ffffff;stroke-width:0.990213"
       d="m 184.01009,304.54086 c -0.002,0.15639 0.007,0.40511 0.0284,0.74618 0.0586,1.74564 0.1998,3.48823 0.2311,5.23491 0.0154,0.38335 0.0266,0.68913 0.0336,0.91734 l 0.68746,-0.89577 c 1.79839,-2.93499 2.79446,-4.41045 3.57986,-5.74559 0.11215,-0.19065 0.17723,-0.29748 0.19525,-0.32049 0.14093,9.8e-4 7.22409,-0.68207 7.82712,-0.59436 0.0792,0.0115 -8.26444,10.36583 -8.39404,10.56477 3.16101,2.49704 6.11885,5.22566 9.10299,7.92746 -1.59327,1.46708 -2.0767,1.77535 -4.52673,3.612 -1.21675,-0.73419 -5.12796,-5.07538 -7.88095,-7.63891 -0.0721,0.0921 -0.14931,0.18475 -0.23166,0.27807 -0.0836,0.083 -0.16143,0.17061 -0.23352,0.26268 l 0.33204,10.46175 c 6.7e-4,0.0936 -0.009,0.18841 -0.0278,0.28449 -0.009,0.0948 -0.0678,0.16965 -0.17571,0.22442 l -4.16415,2.09977 c -0.10786,0.0548 -0.25038,0.12421 -0.42757,0.20821 -0.17718,0.084 -0.35297,0.13666 -0.52739,0.15788 -0.15388,0.0187 -0.28712,-0.007 -0.39971,-0.0763 -0.11258,-0.0696 -0.18199,-0.2121 -0.20821,-0.42756 -0.28887,-4.52263 -0.27938,-9.05052 -0.53924,-13.57561 -0.18487,-3.72991 -0.39217,-7.45862 -0.59635,-11.18751 -0.0122,-0.18592 -0.0207,-0.34106 -0.0254,-0.46543 -0.005,-0.12436 -0.002,-0.22883 0.009,-0.31341 0.0105,-0.0846 0.039,-0.15049 0.0853,-0.19777 0.0463,-0.0473 0.11947,-0.0874 0.21961,-0.12042 l 5.16926,-1.92537 c 0.12838,-0.0573 0.26439,-0.0946 0.40802,-0.11212 0.14363,-0.0175 0.24672,0.0168 0.30925,0.10292 0.0613,0.0758 0.10814,0.24713 0.14061,0.51388 z"
       id="path43"
       aria-label="K
" />
    <path
       style="font-size:31.75px;line-height:0.8;font-family:'Carter One';-inkscape-font-specification:'Carter One';text-align:center;text-anchor:middle;fill:#ffffff;stroke-width:0.990213"
       d="m 163.43567,320.12434 c 0,0.74414 0.0775,1.49345 0.23255,2.24793 0.16536,0.74414 0.43408,1.41593 0.80615,2.01538 0.37207,0.59945 0.86299,1.0852 1.47278,1.45727 0.60978,0.37207 1.36425,0.55811 2.26342,0.55811 0.69247,-0.0413 1.29708,-0.18086 1.81385,-0.41858 3.69373,-1.73825 3.50598,-7.52458 2.97654,-9.36377 -0.59732,-2.10636 -2.17876,-3.58118 -4.38733,-3.58118 -3.08593,0 -4.29625,3.11644 -4.63538,4.07727 -0.17569,0.51677 -0.31005,1.0387 -0.40307,1.5658 -0.0827,0.51677 -0.12919,0.99736 -0.13953,1.44177 z m 3.02307,11.37915 c -6.24923,0 -9.85986,-5.04116 -9.85986,-10.75903 0,-1.62264 0.22738,-3.11609 0.68213,-4.48035 0.46509,-1.37459 1.11104,-2.58899 1.93787,-3.64318 2.5127,-3.23513 7.41907,-5.96434 13.08447,-5.13147 1.60197,0.49609 2.96106,1.20923 4.07727,2.1394 1.11621,0.93017 1.96887,2.1084 2.55798,3.53467 0.59945,1.41593 0.89917,3.14709 0.89917,5.19348 0,1.31258 -0.1602,2.54765 -0.48059,3.7052 -0.32039,1.15755 -0.76998,2.22726 -1.34875,3.20911 -0.57878,0.97151 -1.27641,1.84484 -2.0929,2.61999 -0.80615,0.76481 -1.70532,1.41594 -2.69751,1.95337 -0.99219,0.53743 -2.06189,0.94568 -3.20911,1.22473 -1.13688,0.28939 -2.32027,0.43408 -3.55017,0.43408 z"
       id="path44"
       aria-label="O
" />
    <path
       style="fill:#ffffff;fill-opacity:1;stroke:none;stroke-width:0.814999;stroke-dasharray:none;stroke-opacity:1"
       d="m 190.26327,314.29274 6.99707,4.89421 -0.48276,-12.16871 z"
       id="path45" />
    <text
       xml:space="preserve"
       style="font-size:11.327px;line-height:0.8;text-align:start;writing-mode:lr-tb;direction:ltr;text-anchor:start;fill:#ffffff;stroke-width:0.943917"
       x="287.09219"
       y="335.77994"
       id="text45"
       transform="matrix(0.98381302,0,-0.31789279,1.0164533,0,0)"><tspan
         style="font-style:normal;font-variant:normal;font-weight:normal;font-stretch:normal;font-size:11.7699px;line-height:0.8;font-family:'Days One';-inkscape-font-specification:'Days One';text-align:center;text-anchor:middle;fill:#ffffff;stroke-width:0.943917"
         x="287.09219"
         y="335.77994"
         id="tspan45">MEDIA</tspan></text>
  </g>
</svg>
